
<mxfile host="app.diagrams.net" agent="Mozilla/5.0 (Windows NT 10.0; Win64; x64; rv:136.0) Gecko/20100101 Firefox/136.0" version="26.1.0">
  <diagram name="Page-1" id="zQM7fFjyD7gGPSZoSqbW">
    <mxGraphModel grid="1" page="0" gridSize="10" guides="1" tooltips="1" connect="1" arrows="1" fold="1" pageScale="1" pageWidth="1920" pageHeight="1200" math="0" shadow="0">
      <root>
        <mxCell id="0" />
        <mxCell id="1" parent="0" />
        <mxCell id="XU9NWEopf3p2jTPXnawg-7" style="edgeStyle=orthogonalEdgeStyle;rounded=0;orthogonalLoop=1;jettySize=auto;html=1;exitX=0.25;exitY=1;exitDx=0;exitDy=0;entryX=0.5;entryY=0;entryDx=0;entryDy=0;" edge="1" parent="1" source="XU9NWEopf3p2jTPXnawg-1" target="XU9NWEopf3p2jTPXnawg-3">
          <mxGeometry relative="1" as="geometry">
            <Array as="points">
              <mxPoint x="471" y="202" />
              <mxPoint x="410" y="202" />
            </Array>
          </mxGeometry>
        </mxCell>
        <mxCell id="XU9NWEopf3p2jTPXnawg-8" style="edgeStyle=orthogonalEdgeStyle;rounded=0;orthogonalLoop=1;jettySize=auto;html=1;exitX=0;exitY=0.75;exitDx=0;exitDy=0;entryX=0.5;entryY=0;entryDx=0;entryDy=0;" edge="1" parent="1" source="XU9NWEopf3p2jTPXnawg-1" target="XU9NWEopf3p2jTPXnawg-2">
          <mxGeometry relative="1" as="geometry">
            <Array as="points">
              <mxPoint x="230" y="137" />
            </Array>
          </mxGeometry>
        </mxCell>
        <mxCell id="XU9NWEopf3p2jTPXnawg-9" style="edgeStyle=orthogonalEdgeStyle;rounded=0;orthogonalLoop=1;jettySize=auto;html=1;exitX=0.75;exitY=1;exitDx=0;exitDy=0;entryX=0.5;entryY=0;entryDx=0;entryDy=0;" edge="1" parent="1" source="XU9NWEopf3p2jTPXnawg-1" target="XU9NWEopf3p2jTPXnawg-4">
          <mxGeometry relative="1" as="geometry" />
        </mxCell>
        <mxCell id="XU9NWEopf3p2jTPXnawg-10" style="edgeStyle=orthogonalEdgeStyle;rounded=0;orthogonalLoop=1;jettySize=auto;html=1;exitX=1;exitY=0.75;exitDx=0;exitDy=0;entryX=0.5;entryY=0;entryDx=0;entryDy=0;" edge="1" parent="1" source="XU9NWEopf3p2jTPXnawg-1" target="XU9NWEopf3p2jTPXnawg-5">
          <mxGeometry relative="1" as="geometry" />
        </mxCell>
        <mxCell id="XU9NWEopf3p2jTPXnawg-34" style="edgeStyle=orthogonalEdgeStyle;rounded=0;orthogonalLoop=1;jettySize=auto;html=1;exitX=0;exitY=0.5;exitDx=0;exitDy=0;entryX=1;entryY=0.5;entryDx=0;entryDy=0;" edge="1" parent="1" source="XU9NWEopf3p2jTPXnawg-1" target="XU9NWEopf3p2jTPXnawg-33">
          <mxGeometry relative="1" as="geometry" />
        </mxCell>
        <mxCell id="XU9NWEopf3p2jTPXnawg-36" style="edgeStyle=orthogonalEdgeStyle;rounded=0;orthogonalLoop=1;jettySize=auto;html=1;exitX=1;exitY=0.5;exitDx=0;exitDy=0;entryX=0;entryY=0.5;entryDx=0;entryDy=0;" edge="1" parent="1" source="XU9NWEopf3p2jTPXnawg-1" target="XU9NWEopf3p2jTPXnawg-35">
          <mxGeometry relative="1" as="geometry" />
        </mxCell>
        <mxCell id="XU9NWEopf3p2jTPXnawg-1" value="Landing Page" style="rounded=0;whiteSpace=wrap;html=1;" vertex="1" parent="1">
          <mxGeometry x="440" y="92" width="120" height="60" as="geometry" />
        </mxCell>
        <mxCell id="XU9NWEopf3p2jTPXnawg-21" style="edgeStyle=orthogonalEdgeStyle;rounded=0;orthogonalLoop=1;jettySize=auto;html=1;exitX=1;exitY=0.5;exitDx=0;exitDy=0;entryX=0;entryY=0.5;entryDx=0;entryDy=0;" edge="1" parent="1" source="XU9NWEopf3p2jTPXnawg-2" target="XU9NWEopf3p2jTPXnawg-3">
          <mxGeometry relative="1" as="geometry" />
        </mxCell>
        <mxCell id="XU9NWEopf3p2jTPXnawg-25" style="edgeStyle=orthogonalEdgeStyle;rounded=0;orthogonalLoop=1;jettySize=auto;html=1;exitX=0.25;exitY=1;exitDx=0;exitDy=0;entryX=0.25;entryY=0;entryDx=0;entryDy=0;dashed=1;" edge="1" parent="1" source="XU9NWEopf3p2jTPXnawg-2" target="XU9NWEopf3p2jTPXnawg-24">
          <mxGeometry relative="1" as="geometry" />
        </mxCell>
        <mxCell id="XU9NWEopf3p2jTPXnawg-2" value="Escape Room 1" style="rounded=0;whiteSpace=wrap;html=1;" vertex="1" parent="1">
          <mxGeometry x="170" y="252" width="120" height="60" as="geometry" />
        </mxCell>
        <mxCell id="XU9NWEopf3p2jTPXnawg-22" style="edgeStyle=orthogonalEdgeStyle;rounded=0;orthogonalLoop=1;jettySize=auto;html=1;exitX=1;exitY=0.5;exitDx=0;exitDy=0;entryX=0;entryY=0.5;entryDx=0;entryDy=0;" edge="1" parent="1" source="XU9NWEopf3p2jTPXnawg-3" target="XU9NWEopf3p2jTPXnawg-4">
          <mxGeometry relative="1" as="geometry" />
        </mxCell>
        <mxCell id="XU9NWEopf3p2jTPXnawg-29" style="edgeStyle=orthogonalEdgeStyle;rounded=0;orthogonalLoop=1;jettySize=auto;html=1;exitX=0.75;exitY=1;exitDx=0;exitDy=0;entryX=0;entryY=0;entryDx=0;entryDy=0;dashed=1;" edge="1" parent="1" source="XU9NWEopf3p2jTPXnawg-3" target="XU9NWEopf3p2jTPXnawg-27">
          <mxGeometry relative="1" as="geometry" />
        </mxCell>
        <mxCell id="XU9NWEopf3p2jTPXnawg-3" value="Escape Room 2" style="rounded=0;whiteSpace=wrap;html=1;" vertex="1" parent="1">
          <mxGeometry x="350" y="252" width="120" height="60" as="geometry" />
        </mxCell>
        <mxCell id="XU9NWEopf3p2jTPXnawg-23" style="edgeStyle=orthogonalEdgeStyle;rounded=0;orthogonalLoop=1;jettySize=auto;html=1;exitX=1;exitY=0.5;exitDx=0;exitDy=0;entryX=0;entryY=0.5;entryDx=0;entryDy=0;" edge="1" parent="1" source="XU9NWEopf3p2jTPXnawg-4" target="XU9NWEopf3p2jTPXnawg-5">
          <mxGeometry relative="1" as="geometry" />
        </mxCell>
        <mxCell id="XU9NWEopf3p2jTPXnawg-31" style="edgeStyle=orthogonalEdgeStyle;rounded=0;orthogonalLoop=1;jettySize=auto;html=1;exitX=0;exitY=1;exitDx=0;exitDy=0;entryX=0.75;entryY=0;entryDx=0;entryDy=0;dashed=1;" edge="1" parent="1" source="XU9NWEopf3p2jTPXnawg-4" target="XU9NWEopf3p2jTPXnawg-27">
          <mxGeometry relative="1" as="geometry" />
        </mxCell>
        <mxCell id="XU9NWEopf3p2jTPXnawg-4" value="Escape Room 3" style="rounded=0;whiteSpace=wrap;html=1;" vertex="1" parent="1">
          <mxGeometry x="530" y="252" width="120" height="60" as="geometry" />
        </mxCell>
        <mxCell id="XU9NWEopf3p2jTPXnawg-39" style="edgeStyle=orthogonalEdgeStyle;rounded=0;orthogonalLoop=1;jettySize=auto;html=1;exitX=1;exitY=0.5;exitDx=0;exitDy=0;entryX=0;entryY=0.5;entryDx=0;entryDy=0;" edge="1" parent="1" source="XU9NWEopf3p2jTPXnawg-5" target="XU9NWEopf3p2jTPXnawg-38">
          <mxGeometry relative="1" as="geometry">
            <mxPoint x="800" y="370" as="targetPoint" />
          </mxGeometry>
        </mxCell>
        <mxCell id="XU9NWEopf3p2jTPXnawg-5" value="Escape Room 4" style="rounded=0;whiteSpace=wrap;html=1;" vertex="1" parent="1">
          <mxGeometry x="710" y="252" width="120" height="60" as="geometry" />
        </mxCell>
        <mxCell id="XU9NWEopf3p2jTPXnawg-16" value="" style="sketch=0;aspect=fixed;pointerEvents=1;shadow=0;dashed=0;html=1;strokeColor=none;labelPosition=center;verticalLabelPosition=bottom;verticalAlign=top;align=center;fillColor=#000000;shape=mxgraph.mscae.enterprise.lock" vertex="1" parent="1">
          <mxGeometry x="441" y="162" width="23.4" height="30" as="geometry" />
        </mxCell>
        <mxCell id="XU9NWEopf3p2jTPXnawg-17" value="" style="sketch=0;aspect=fixed;pointerEvents=1;shadow=0;dashed=0;html=1;strokeColor=none;labelPosition=center;verticalLabelPosition=bottom;verticalAlign=top;align=center;fillColor=#000000;shape=mxgraph.mscae.enterprise.lock" vertex="1" parent="1">
          <mxGeometry x="537.6" y="162" width="23.4" height="30" as="geometry" />
        </mxCell>
        <mxCell id="XU9NWEopf3p2jTPXnawg-19" value="" style="sketch=0;aspect=fixed;pointerEvents=1;shadow=0;dashed=0;html=1;strokeColor=none;labelPosition=center;verticalLabelPosition=bottom;verticalAlign=top;align=center;fillColor=#000000;shape=mxgraph.mscae.enterprise.lock" vertex="1" parent="1">
          <mxGeometry x="741" y="143" width="23.4" height="30" as="geometry" />
        </mxCell>
        <mxCell id="XU9NWEopf3p2jTPXnawg-26" style="edgeStyle=orthogonalEdgeStyle;rounded=0;orthogonalLoop=1;jettySize=auto;html=1;exitX=0.75;exitY=0;exitDx=0;exitDy=0;entryX=0.75;entryY=1;entryDx=0;entryDy=0;dashed=1;" edge="1" parent="1" source="XU9NWEopf3p2jTPXnawg-24" target="XU9NWEopf3p2jTPXnawg-2">
          <mxGeometry relative="1" as="geometry" />
        </mxCell>
        <mxCell id="XU9NWEopf3p2jTPXnawg-24" value="Secret 1" style="rounded=0;whiteSpace=wrap;html=1;" vertex="1" parent="1">
          <mxGeometry x="170" y="372" width="120" height="60" as="geometry" />
        </mxCell>
        <mxCell id="XU9NWEopf3p2jTPXnawg-30" style="edgeStyle=orthogonalEdgeStyle;rounded=0;orthogonalLoop=1;jettySize=auto;html=1;exitX=0.25;exitY=0;exitDx=0;exitDy=0;entryX=1;entryY=1;entryDx=0;entryDy=0;dashed=1;" edge="1" parent="1" source="XU9NWEopf3p2jTPXnawg-27" target="XU9NWEopf3p2jTPXnawg-3">
          <mxGeometry relative="1" as="geometry" />
        </mxCell>
        <mxCell id="XU9NWEopf3p2jTPXnawg-32" style="edgeStyle=orthogonalEdgeStyle;rounded=0;orthogonalLoop=1;jettySize=auto;html=1;exitX=1;exitY=0;exitDx=0;exitDy=0;entryX=0.25;entryY=1;entryDx=0;entryDy=0;dashed=1;" edge="1" parent="1" source="XU9NWEopf3p2jTPXnawg-27" target="XU9NWEopf3p2jTPXnawg-4">
          <mxGeometry relative="1" as="geometry" />
        </mxCell>
        <mxCell id="XU9NWEopf3p2jTPXnawg-27" value="Secret 2" style="rounded=0;whiteSpace=wrap;html=1;" vertex="1" parent="1">
          <mxGeometry x="440" y="372" width="120" height="60" as="geometry" />
        </mxCell>
        <mxCell id="XU9NWEopf3p2jTPXnawg-33" value="Tutorial" style="rounded=0;whiteSpace=wrap;html=1;" vertex="1" parent="1">
          <mxGeometry x="79" y="93" width="120" height="60" as="geometry" />
        </mxCell>
        <mxCell id="XU9NWEopf3p2jTPXnawg-35" value="Account" style="rounded=0;whiteSpace=wrap;html=1;" vertex="1" parent="1">
          <mxGeometry x="890" y="92" width="120" height="60" as="geometry" />
        </mxCell>
        <mxCell id="XU9NWEopf3p2jTPXnawg-40" style="edgeStyle=orthogonalEdgeStyle;rounded=0;orthogonalLoop=1;jettySize=auto;html=1;exitX=0.5;exitY=0;exitDx=0;exitDy=0;entryX=0.5;entryY=1;entryDx=0;entryDy=0;" edge="1" parent="1" source="XU9NWEopf3p2jTPXnawg-38" target="XU9NWEopf3p2jTPXnawg-35">
          <mxGeometry relative="1" as="geometry" />
        </mxCell>
        <mxCell id="XU9NWEopf3p2jTPXnawg-38" value="End Page" style="rounded=0;whiteSpace=wrap;html=1;" vertex="1" parent="1">
          <mxGeometry x="890" y="252" width="120" height="60" as="geometry" />
        </mxCell>
      </root>
    </mxGraphModel>
  </diagram>
</mxfile>
